<?xml version="1.0" encoding="UTF-8" standalone="no"?>
<svg
   xmlns:dc="http://purl.org/dc/elements/1.1/"
   xmlns:cc="http://creativecommons.org/ns#"
   xmlns:rdf="http://www.w3.org/1999/02/22-rdf-syntax-ns#"
   xmlns:svg="http://www.w3.org/2000/svg"
   xmlns="http://www.w3.org/2000/svg"
   xmlns:sodipodi="http://sodipodi.sourceforge.net/DTD/sodipodi-0.dtd"
   xmlns:inkscape="http://www.inkscape.org/namespaces/inkscape"
   enable-background="new 0 0 100 100"
   height="200"
   id="Layer_1"
   inkscape:version="0.47 r22583"
   sodipodi:docname="TazaCafe.svg"
   version="1.1"
   viewBox="0 0 200 200"
   width="200"
   x="0px"
   xml:space="preserve"
   y="0px"><metadata
   id="metadata6611"><rdf:RDF><cc:Work
       rdf:about=""><dc:format>image/svg+xml</dc:format><dc:type
         rdf:resource="http://purl.org/dc/dcmitype/StillImage" /><dc:title></dc:title></cc:Work></rdf:RDF></metadata><defs
   id="defs6609"><inkscape:perspective
   sodipodi:type="inkscape:persp3d"
   inkscape:vp_x="0 : 50 : 1"
   inkscape:vp_y="0 : 1000 : 0"
   inkscape:vp_z="100 : 50 : 1"
   inkscape:persp3d-origin="50 : 33.333333 : 1"
   id="perspective3921" />
	
	
	
</defs><sodipodi:namedview
   bordercolor="#666666"
   borderopacity="1"
   gridtolerance="10"
   guidetolerance="10"
   id="namedview6607"
   inkscape:current-layer="Layer_1"
   inkscape:cx="100"
   inkscape:cy="75.35993"
   inkscape:guide-bbox="true"
   inkscape:pageopacity="0"
   inkscape:pageshadow="2"
   inkscape:window-height="808"
   inkscape:window-maximized="1"
   inkscape:window-width="1200"
   inkscape:window-x="0"
   inkscape:window-y="31"
   inkscape:zoom="1.949847"
   objecttolerance="10"
   pagecolor="#ffffff"
   showgrid="false"
   showguides="true" />












































<g
   id="g4480"
   transform="matrix(1.000003,0,0,1.000003,0.5742234,-5.5535089e-4)"><g
     transform="matrix(0.99999701,0,0,0.99999701,-1.7148811e-6,-13.878705)"
     id="g4472"><path
       d="m 151.3033,67.103798 c 0,-6.947153 -4.42092,-16.696973 -25.4916,-23.657612 -13.59537,-4.495072 -31.512771,-6.967368 -50.446045,-6.967368 -18.935519,0 -36.85066,2.472296 -50.448274,6.967368 -21.070683,6.962885 -25.49160268,16.710459 -25.49160268,23.657612 0,29.638303 1.02712651,53.197012 6.04364358,71.824622 4.8704171,18.08371 13.3795981,31.91507 28.4493541,46.24538 9.430679,8.96544 23.763241,13.7055 41.446879,13.7055 17.683639,0 32.013965,-4.74006 41.444645,-13.7055 11.47594,-10.9118 19.23445,-22.04612 25.14548,-36.09998 0.0787,-0.18655 0.26746,-0.62706 1.7823,-1.10579 2.34194,-0.73495 5.76044,-0.82035 8.1316,-0.82035 1.44741,0 2.94427,0.036 4.39618,0.0719 1.42943,0.0315 2.90607,0.0674 4.31753,0.0674 10.05774,0 19.52213,-4.25909 26.65582,-11.99737 6.66395,-7.22809 10.48701,-16.91049 10.48701,-26.56592 0,-10.138653 -3.93544,-19.295132 -11.0871,-25.77928 -6.7224,-6.097581 -15.97552,-9.453159 -26.05798,-9.453159 -3.66349,0 -6.74262,0.537167 -9.30931,1.177718 0.027,-2.409364 0.0315,-4.926612 0.0315,-7.565221 l -2e-5,7e-5 z m 38.16546,41.619942 c 0,7.60118 -6.63274,10.73842 -11.90771,16.45841 -5.54918,6.02341 20.61818,-11.70091 14.57104,-16.50401 C 37.567757,-14.088832 87.58002,136.77813 84.572813,136.77813 c -7.488802,0 -5.645907,-18.95041 -8.217092,-12.84385 -5.230021,12.42665 4.95928,-91.66728 -6.098614,-81.151046 -7.72929,7.349462 5.037003,37.266798 -10.814901,37.266798 -15.851893,0 -12.098878,106.481288 -19.830414,99.134078 C 12.409815,153.31942 70.904797,181.05264 7.6899894,67.103798 1.6976259,56.302163 14.19749,184.10462 51.571831,184.10462 c 37.376598,0 79.451809,-124.811294 79.451809,-115.498608 0,9.312676 -43.012713,12.147953 -43.1251,17.683639 -38.655211,48.734639 55.78334,-1.412269 56.1879,-1.412269 4.2591,0 -23.44037,7.393658 -15.64815,7.393658 8.02373,0 30.93101,-3.412946 36.13182,1.302398 5.39858,4.897392 24.89865,7.373852 24.89865,15.150342 l 0,-4e-5 z"
       id="path4468"
       inkscape:connector-curvature="0"
       style="fill:#f2f2f2;stroke:none"
       sodipodi:nodetypes="ccscsscscssssssscscccccssccscsszcssccc" /><path
       style="fill:#000000;stroke:none"
       inkscape:connector-curvature="0"
       id="path6481"
       d="m 153.00285,67.103793 c 0,-6.947146 -4.42092,-16.696973 -25.4916,-23.657604 -13.59537,-4.495079 -31.512758,-6.967374 -50.446032,-6.967374 -18.935523,0 -36.850663,2.472295 -50.448278,6.967374 C 5.5462541,50.409067 1.1253432,60.156647 1.1253432,67.103793 c 0,29.638308 1.0271257,53.197017 6.0436349,71.824627 4.8704179,18.08371 13.3796039,31.91507 28.4493579,46.24538 9.430678,8.96544 23.763239,13.7055 41.446882,13.7055 17.68364,0 32.013962,-4.74006 41.444632,-13.7055 11.47594,-10.9118 19.23445,-22.04612 25.14548,-36.09998 0.0787,-0.18655 0.26746,-0.62706 1.7823,-1.10579 2.34194,-0.73495 5.76044,-0.82035 8.1316,-0.82035 1.44742,0 2.94428,0.036 4.39618,0.0719 1.42944,0.0315 2.90607,0.0674 4.31753,0.0674 10.05774,0 19.52213,-4.25909 26.65582,-11.99737 6.66395,-7.22809 10.48702,-16.91049 10.48702,-26.56592 0,-10.138652 -3.93544,-19.29513 -11.08711,-25.779283 -6.72239,-6.097575 -15.97552,-9.453152 -26.05798,-9.453152 -3.66349,0 -6.74262,0.537162 -9.3093,1.177711 0.027,-2.409363 0.0315,-4.926608 0.0315,-7.565219 z m 38.16547,41.619947 c 0,7.60118 -3.02744,15.24506 -8.30241,20.96504 -5.54917,6.02341 -12.85817,9.33404 -20.58072,9.33404 -2.69705,0 -5.70651,-0.1416 -8.71371,-0.1416 -7.48881,0 -14.95963,0.87879 -17.53081,6.98536 -5.23003,12.42664 -12.16594,22.80129 -23.22383,33.31753 -7.72929,7.34946 -19.899723,11.42874 -35.751622,11.42874 -15.851898,0 -28.022327,-4.08153 -35.753863,-11.42874 C 14.10938,153.31942 9.3895465,129.33143 9.3895465,67.103793 c 0,-12.352479 30.3013325,-22.363021 67.6756715,-22.363021 37.376592,0 67.675672,10.010542 67.675672,22.363021 0,6.272884 -0.0494,12.147953 -0.16182,17.683643 0.4023,0.06293 0.80237,0.08991 1.20692,0.08991 4.2591,0 8.70697,-3.121833 16.4992,-3.121833 8.02372,0 15.30799,2.595909 20.5088,7.311247 5.39858,4.89739 8.37433,11.88049 8.37433,19.65698 z" /><path
       sodipodi:type="arc"
       style="fill:#ffffff;fill-opacity:1;stroke:none"
       id="path4470"
       sodipodi:cx="164.64203"
       sodipodi:cy="111.46184"
       sodipodi:rx="11.83505"
       sodipodi:ry="13.333158"
       d="m 176.47708,111.46184 c 0,7.3637 -5.29873,13.33316 -11.83505,13.33316 -6.53632,0 -11.83505,-5.96946 -11.83505,-13.33316 0,-7.3637 5.29873,-13.33316 11.83505,-13.33316 6.53632,0 11.83505,5.96946 11.83505,13.33316 z"
       transform="matrix(1.3200626,0,0,1.0027399,-55.998619,-0.54490502)" /><path
       style="fill:#000000;stroke:none"
       inkscape:connector-curvature="0"
       id="path6483"
       d="m 143.83963,103.46449 c -0.33039,5.18732 -2.6004,21.04597 -3.16004,25.57925 2.3262,-1.37999 5.56266,-1.75083 8.92722,-1.75083 3.86802,0 7.89786,0.48997 10.90282,0.48997 0.6428,0 1.24064,-0.0225 1.7778,-0.0787 9.48237,-0.95296 17.55779,-8.86879 17.55779,-18.97822 0,-9.504854 -6.89096,-15.64738 -17.55779,-15.64738 -8.83282,-0.0022 -15.24505,4.52205 -18.4478,10.38588 z m 16.67,16.05418 c -1.13725,0 -2.64535,-0.0989 -4.23886,-0.20452 -1.81826,-0.11913 -3.85004,-0.24948 -5.92227,-0.28095 0.61808,-4.65915 1.23615,-9.53631 1.55755,-12.8784 1.51034,-2.02954 4.63218,-4.81648 10.37914,-4.81648 4.2411,0 9.29583,1.2811 9.29583,7.38542 0,6.09532 -5.14688,10.25552 -10.12292,10.75672 -0.15733,0.018 -0.45176,0.0382 -0.94847,0.0382 z" /><path
       style="fill:#000000;stroke:none"
       inkscape:connector-curvature="0"
       id="path6485"
       d="m 125.59635,60.606156 c -1.00465,-0.541657 -2.25878,-0.166319 -2.80268,0.838332 -0.53941,1.006898 -0.16408,2.25653 0.84282,2.798187 2.75099,1.483376 4.32876,3.079129 4.32876,4.37596 0,1.15074 -1.2766,2.753236 -4.44338,4.434396 -7.63938,-5.598621 -25.55903,-9.529569 -46.458899,-9.529569 -20.897625,0 -38.817261,3.930948 -46.4544,9.529569 -3.166784,-1.68116 -4.443387,-3.283656 -4.443387,-4.434396 0,-1.303573 1.582268,-2.899326 4.346742,-4.384951 1.004651,-0.537161 1.382237,-1.786794 0.842827,-2.793691 -0.539409,-1.006898 -1.793536,-1.382237 -2.795939,-0.845075 -4.328762,2.328451 -6.522361,5.027747 -6.522361,8.023717 0,10.57018 27.682948,16.103623 55.031012,16.103623 27.348065,0 55.031015,-5.533443 55.031015,-16.103623 -0.002,-2.991476 -2.18911,-5.686276 -6.50213,-8.012479 z" /><path
       style="fill:#deaa87;fill-opacity:1;stroke:none"
       d="m 76.875726,62.884458 c -20.897625,0 -38.788604,4.080812 -46.425745,9.859838 1.411476,7.286609 31.212997,8.64315 46.636452,9.207348 27.335737,0 49.516117,-5.046945 49.516117,-11.237315 -0.22121,-0.160228 -2.47731,1.547164 -3.23084,2.029967 -7.63938,-5.779026 -25.596112,-9.859838 -46.495984,-9.859838 z"
       id="path4465"
       sodipodi:nodetypes="cccccc" /></g></g></svg>