<?xml version="1.0" encoding="UTF-8" standalone="no"?>
<svg
   xmlns:dc="http://purl.org/dc/elements/1.1/"
   xmlns:cc="http://creativecommons.org/ns#"
   xmlns:rdf="http://www.w3.org/1999/02/22-rdf-syntax-ns#"
   xmlns:svg="http://www.w3.org/2000/svg"
   xmlns="http://www.w3.org/2000/svg"
   xmlns:sodipodi="http://sodipodi.sourceforge.net/DTD/sodipodi-0.dtd"
   xmlns:inkscape="http://www.inkscape.org/namespaces/inkscape"
   version="1.0"
   x="0px"
   y="0px"
   width="200"
   height="200"
   viewBox="0 0 200 200"
   enable-background="new 0 0 100 100"
   xml:space="preserve"
   id="svg13003"
   inkscape:version="0.47 r22583"
   sodipodi:docname="noun_project_1158.svg"><metadata
   id="metadata13318"><rdf:RDF><cc:Work
       rdf:about=""><dc:format>image/svg+xml</dc:format><dc:type
         rdf:resource="http://purl.org/dc/dcmitype/StillImage" /><dc:title></dc:title></cc:Work></rdf:RDF></metadata><defs
   id="defs13316"><inkscape:perspective
   sodipodi:type="inkscape:persp3d"
   inkscape:vp_x="0 : 50 : 1"
   inkscape:vp_y="0 : 1000 : 0"
   inkscape:vp_z="100 : 50 : 1"
   inkscape:persp3d-origin="50 : 33.333333 : 1"
   id="perspective13320" />
	
	
	
	
	
	
	
	
	
	
	
	
	
	
	
	
	
	
	
		
	
		
	
		
	
	
	
	
	
	
	
	
	
	
	
	
	
	
	
	
	
	
	
	
<inkscape:perspective
   id="perspective14694"
   inkscape:persp3d-origin="50 : 33.333333 : 1"
   inkscape:vp_z="100 : 50 : 1"
   inkscape:vp_y="0 : 1000 : 0"
   inkscape:vp_x="0 : 50 : 1"
   sodipodi:type="inkscape:persp3d" />


	
	
	
	
	
	
	
	
	
	
	
	
	
	
	
	
	
	
	
		
	
		
	
		
	
	
	
	
	
	
	
	
	
	
	
	
	
	
	
	
	
	
	
	



		
		
		
		
			
	
		
		
	
		
		
	
		
		
		
		
		
		
	
		
		
		
		
		
		
	
		
		
	
		
		
	
		
		
		
	
		
			
		
			
		
			
	
		
		
		
		
	
		
		
	
		
		
	
		
		
		
		
	
		
		
	
		
		
	
		
		
	
		
		
	
		
		
	</defs><sodipodi:namedview
   pagecolor="#ffffff"
   bordercolor="#666666"
   borderopacity="1"
   objecttolerance="10"
   gridtolerance="10"
   guidetolerance="10"
   inkscape:pageopacity="0"
   inkscape:pageshadow="2"
   inkscape:window-width="1200"
   inkscape:window-height="808"
   id="namedview13314"
   showgrid="false"
   inkscape:zoom="1.18"
   inkscape:cx="78.668065"
   inkscape:cy="83.898305"
   inkscape:window-x="0"
   inkscape:window-y="31"
   inkscape:window-maximized="1"
   inkscape:current-layer="svg13003" />





<path
   sodipodi:type="arc"
   style="fill:#a0c02c;fill-opacity:1;stroke:none"
   id="path15285"
   sodipodi:cx="80.932205"
   sodipodi:cy="0.84745771"
   sodipodi:rx="57.203388"
   sodipodi:ry="53.389832"
   d="m 138.13559,0.84745771 a 57.203388,53.389832 0 1 1 -114.406773,0 57.203388,53.389832 0 1 1 114.406773,0 z"
   transform="matrix(0.36253195,0,0,0.3820106,66.056725,79.25802)" /><path
   sodipodi:type="arc"
   style="fill:#a0c02c;fill-opacity:1;stroke:none"
   id="path15289"
   sodipodi:cx="80.932205"
   sodipodi:cy="0.84745771"
   sodipodi:rx="57.203388"
   sodipodi:ry="53.389832"
   d="m 138.13559,0.84745771 a 57.203388,53.389832 0 1 1 -114.406773,0 57.203388,53.389832 0 1 1 114.406773,0 z"
   transform="matrix(0.36253195,0,0,0.3820106,33.853335,130.10548)" /><path
   transform="matrix(0.36253195,0,0,0.3820106,75.378759,115.6987)"
   d="m 138.13559,0.84745771 a 57.203388,53.389832 0 1 1 -114.406773,0 57.203388,53.389832 0 1 1 114.406773,0 z"
   sodipodi:ry="53.389832"
   sodipodi:rx="57.203388"
   sodipodi:cy="0.84745771"
   sodipodi:cx="80.932205"
   id="path15287"
   style="fill:#a0c02c;fill-opacity:1;stroke:none"
   sodipodi:type="arc" /><g
   id="g15276"
   transform="matrix(2.0093695,0,0,2.0093695,0.06750421,-1.1061178)"><g
     id="BG">
</g><g
     id="B001">
</g><path
     style="fill:#ff9955"
     sodipodi:nodetypes="cssccscccsscccsssccsssccsssc"
     d="m 4.6589944,90.856839 c 0,0 1.6693927,3.053398 4.4499425,1.957735 C 27.365006,85.622571 45.480606,78.103709 63.645118,70.720655 75.410726,65.938646 87.177587,61.157787 98.948211,56.383834 97.845774,55.03037 97.217421,53.978443 96.966582,53.51808 96.86875,53.475496 96.765911,53.438666 96.670592,53.396085 87.176333,49.152699 81.519912,41.315037 80.049995,38.956834 69.030912,32.885074 56.592091,21.513807 47.029536,12.739222 c 0.416909,0.05917 1.558256,1.230103 -3.230807,-1.773545 C 34.482566,26.100075 25.109963,41.208003 15.68343,56.284856 11.081787,63.646043 6.4211953,70.999174 1.9688029,78.437471 -1.2293955,83.781123 1.753564,80.220143 0.29869734,86.470709 -0.78247381,94.619665 0.8015095,96.518404 4.6589944,90.856839 z M 31.348331,55.764646 c 4.804822,-0.33146 9.020174,3.312305 9.4165,8.136897 0.395071,4.825745 -3.180641,9.005831 -7.985462,9.337292 -4.804824,0.33146 -9.020174,-3.311152 -9.415246,-8.136897 -0.395072,-4.824593 3.179385,-9.00583 7.984208,-9.337292 z m 29.40712,2.042857 c 0.395072,4.825743 -3.179384,9.005831 -7.984207,9.337291 -4.804823,0.33146 -9.018921,-3.311154 -9.415245,-8.136898 -0.395072,-4.825743 3.179385,-9.006981 7.984208,-9.338442 4.804823,-0.331459 9.018919,3.312305 9.415244,8.138049 z M 56.666775,38.514886 c 0.395071,4.825743 -3.179386,9.00583 -7.984208,9.33729 -4.804823,0.331461 -9.021428,-3.312304 -9.4165,-8.136897 -0.395072,-4.825744 3.18064,-9.00583 7.984209,-9.33729 4.806076,-0.331461 9.021427,3.312303 9.416499,8.136897 z"
     id="path13128" /><g
     id="B003">
</g><g
     id="TEXT_and_line">
</g><path
     style="fill:#a05a2c"
     sodipodi:nodetypes="cccscccssssssssscc"
     id="path13984"
     d="m 43.908747,15.176 c 1.55,1.735 7.08,6.943 12.665,9.448 0.854,2.278 5.607,11.144 15.25,14.125 1.203,2.102 5.348,8.734 13.236,12.311 0.014,0.006 0.028,0.012 0.042,0.019 l 0.339,0.151 0.199,0.362 c 0.878,1.537 3.684,5.65 9.864,8.443 4.095,1.851 3.989,-6.102 3.996,-8.25 0.014,-4.478 -0.356,-9.286 -3.394,-12.839 -2.995,-3.504 -7.67,-5.222 -11.368,-7.828 -5.147,-3.627 -10.22,-7.389 -15.307,-11.103 -6.567,-4.793 -13.204,-9.498 -19.8,-14.2489999 -0.515,-0.371 -1.13,-0.566 -1.754,-0.566 -0.213,0 -0.427,0.022 -0.639,0.069 -0.832,0.181 -1.547,0.708 -1.969,1.448 -1.513,2.66 -3.031,5.3159999 -4.54,7.9809999 l 3.18,0.478 z" /><path
     style="fill:#a05a2c"
     sodipodi:nodetypes="cccsscc"
     d="m 4.1296713,95.107504 c 0.3685131,0 0.7390951,-0.06534 1.0931674,-0.20011 L 96.106286,60.450269 C 95.061639,59.841647 94.11609,59.207108 93.268602,58.562189 92.40976,57.907954 84.015406,62.033511 83.118368,62.370491 67.673661,68.164322 52.231023,73.961266 36.784248,79.748871 20.519936,86.47353 -7.6956957,92.948599 4.1296713,95.107504 z"
     id="path14502" /></g></svg>