<?xml version="1.0" encoding="UTF-8" standalone="no"?>
<svg
   xmlns:dc="http://purl.org/dc/elements/1.1/"
   xmlns:cc="http://creativecommons.org/ns#"
   xmlns:rdf="http://www.w3.org/1999/02/22-rdf-syntax-ns#"
   xmlns:svg="http://www.w3.org/2000/svg"
   xmlns="http://www.w3.org/2000/svg"
   xmlns:xlink="http://www.w3.org/1999/xlink"
   xmlns:sodipodi="http://sodipodi.sourceforge.net/DTD/sodipodi-0.dtd"
   xmlns:inkscape="http://www.inkscape.org/namespaces/inkscape"
   version="1.1"
   id="Layer_1"
   x="0px"
   y="0px"
   width="200"
   height="200"
   viewBox="0 0 200 200"
   enable-background="new 0 0 100 100"
   xml:space="preserve"
   inkscape:version="0.47 r22583"
   sodipodi:docname="noun_project_1029.svg"><metadata
   id="metadata6880"><rdf:RDF><cc:Work
       rdf:about=""><dc:format>image/svg+xml</dc:format><dc:type
         rdf:resource="http://purl.org/dc/dcmitype/StillImage" /><dc:title></dc:title></cc:Work></rdf:RDF></metadata><defs
   id="defs6878"><linearGradient
     inkscape:collect="always"
     id="linearGradient7691"><stop
       style="stop-color:#ff7f2a;stop-opacity:1;"
       offset="0"
       id="stop7693" /><stop
       style="stop-color:#ff7f2a;stop-opacity:0;"
       offset="1"
       id="stop7695" /></linearGradient><linearGradient
     inkscape:collect="always"
     id="linearGradient7681"><stop
       style="stop-color:#ff7f2a;stop-opacity:1;"
       offset="0"
       id="stop7683" /><stop
       style="stop-color:#ff7f2a;stop-opacity:0;"
       offset="1"
       id="stop7685" /></linearGradient><linearGradient
     inkscape:collect="always"
     id="linearGradient7673"><stop
       style="stop-color:#ff7f2a;stop-opacity:1;"
       offset="0"
       id="stop7675" /><stop
       style="stop-color:#ff7f2a;stop-opacity:0;"
       offset="1"
       id="stop7677" /></linearGradient><linearGradient
     inkscape:collect="always"
     id="linearGradient7665"><stop
       style="stop-color:#ff7f2a;stop-opacity:1;"
       offset="0"
       id="stop7667" /><stop
       style="stop-color:#ff7f2a;stop-opacity:0;"
       offset="1"
       id="stop7669" /></linearGradient><linearGradient
     inkscape:collect="always"
     id="linearGradient7655"><stop
       style="stop-color:#ff7f2a;stop-opacity:1;"
       offset="0"
       id="stop7657" /><stop
       style="stop-color:#ff7f2a;stop-opacity:0;"
       offset="1"
       id="stop7659" /></linearGradient><linearGradient
     inkscape:collect="always"
     id="linearGradient7647"><stop
       style="stop-color:#ff7f2a;stop-opacity:1;"
       offset="0"
       id="stop7649" /><stop
       style="stop-color:#ff7f2a;stop-opacity:0;"
       offset="1"
       id="stop7651" /></linearGradient><linearGradient
     inkscape:collect="always"
     id="linearGradient7394"><stop
       style="stop-color:#ffff00;stop-opacity:1;"
       offset="0"
       id="stop7396" /><stop
       style="stop-color:#ffff00;stop-opacity:0;"
       offset="1"
       id="stop7398" /></linearGradient><inkscape:perspective
     sodipodi:type="inkscape:persp3d"
     inkscape:vp_x="0 : 50 : 1"
     inkscape:vp_y="0 : 1000 : 0"
     inkscape:vp_z="100 : 50 : 1"
     inkscape:persp3d-origin="50 : 33.333333 : 1"
     id="perspective6882" /><linearGradient
     inkscape:collect="always"
     xlink:href="#linearGradient7394"
     id="linearGradient7420"
     x1="9.9460001"
     y1="19.9725"
     x2="29.999001"
     y2="19.9725"
     gradientUnits="userSpaceOnUse" /><linearGradient
     inkscape:collect="always"
     xlink:href="#linearGradient7394"
     id="linearGradient7422"
     x1="46.692001"
     y1="11.844"
     x2="53.307999"
     y2="11.844"
     gradientUnits="userSpaceOnUse" /><linearGradient
     inkscape:collect="always"
     xlink:href="#linearGradient7394"
     id="linearGradient7424"
     x1="70.002747"
     y1="19.9715"
     x2="90.055252"
     y2="19.9715"
     gradientUnits="userSpaceOnUse" /><linearGradient
     inkscape:collect="always"
     xlink:href="#linearGradient7394"
     id="linearGradient7426"
     x1="76.310997"
     y1="50"
     x2="100"
     y2="50"
     gradientUnits="userSpaceOnUse" /><linearGradient
     inkscape:collect="always"
     xlink:href="#linearGradient7394"
     id="linearGradient7428"
     x1="70.001999"
     y1="80.027496"
     x2="90.055252"
     y2="80.027496"
     gradientUnits="userSpaceOnUse" /><inkscape:perspective
     id="perspective7538"
     inkscape:persp3d-origin="0.5 : 0.33333333 : 1"
     inkscape:vp_z="1 : 0.5 : 1"
     inkscape:vp_y="0 : 1000 : 0"
     inkscape:vp_x="0 : 0.5 : 1"
     sodipodi:type="inkscape:persp3d" /><linearGradient
     inkscape:collect="always"
     xlink:href="#linearGradient7494"
     id="linearGradient7500"
     x1="0"
     y1="50"
     x2="23.688999"
     y2="50"
     gradientUnits="userSpaceOnUse" /><linearGradient
     inkscape:collect="always"
     id="linearGradient7494"><stop
       style="stop-color:#ff7f2a;stop-opacity:1;"
       offset="0"
       id="stop7496" /><stop
       style="stop-color:#ff7f2a;stop-opacity:0;"
       offset="1"
       id="stop7498" /></linearGradient><linearGradient
     inkscape:collect="always"
     xlink:href="#linearGradient7494"
     id="linearGradient7546"
     x1="0"
     y1="50"
     x2="23.688999"
     y2="50"
     gradientUnits="userSpaceOnUse" /><linearGradient
     y2="50"
     x2="23.688999"
     y1="50"
     x1="0"
     gradientUnits="userSpaceOnUse"
     id="linearGradient7556"
     xlink:href="#linearGradient7494"
     inkscape:collect="always" /><linearGradient
     y2="50"
     x2="23.688999"
     y1="50"
     x1="0"
     gradientUnits="userSpaceOnUse"
     id="linearGradient7558"
     xlink:href="#linearGradient7494"
     inkscape:collect="always" /><inkscape:perspective
     id="perspective7599"
     inkscape:persp3d-origin="0.5 : 0.33333333 : 1"
     inkscape:vp_z="1 : 0.5 : 1"
     inkscape:vp_y="0 : 1000 : 0"
     inkscape:vp_x="0 : 0.5 : 1"
     sodipodi:type="inkscape:persp3d" /><linearGradient
     y2="50"
     x2="23.688999"
     y1="50"
     x1="0"
     gradientUnits="userSpaceOnUse"
     id="linearGradient7558-8"
     xlink:href="#linearGradient7494-5"
     inkscape:collect="always" /><linearGradient
     inkscape:collect="always"
     id="linearGradient7494-5"><stop
       style="stop-color:#ff7f2a;stop-opacity:1;"
       offset="0"
       id="stop7496-8" /><stop
       style="stop-color:#ff7f2a;stop-opacity:0;"
       offset="1"
       id="stop7498-7" /></linearGradient><linearGradient
     y2="50"
     x2="23.688999"
     y1="50"
     x1="0"
     gradientUnits="userSpaceOnUse"
     id="linearGradient7556-8"
     xlink:href="#linearGradient7494-5"
     inkscape:collect="always" /><linearGradient
     y2="50"
     x2="23.688999"
     y1="50"
     x1="0"
     gradientUnits="userSpaceOnUse"
     id="linearGradient7616"
     xlink:href="#linearGradient7494-5"
     inkscape:collect="always" /><linearGradient
     inkscape:collect="always"
     xlink:href="#linearGradient7647"
     id="linearGradient7653"
     x1="9.9460001"
     y1="80.027496"
     x2="29.999001"
     y2="80.027496"
     gradientUnits="userSpaceOnUse" /><linearGradient
     inkscape:collect="always"
     xlink:href="#linearGradient7655"
     id="linearGradient7661"
     x1="46.692001"
     y1="88.155502"
     x2="53.307999"
     y2="88.155502"
     gradientUnits="userSpaceOnUse" /><linearGradient
     inkscape:collect="always"
     xlink:href="#linearGradient7655"
     id="linearGradient7663"
     gradientUnits="userSpaceOnUse"
     x1="50"
     y1="100"
     x2="50"
     y2="76.310997" /><linearGradient
     inkscape:collect="always"
     xlink:href="#linearGradient7665"
     id="linearGradient7671"
     x1="90.055252"
     y1="90.054001"
     x2="70.001999"
     y2="70.000999"
     gradientUnits="userSpaceOnUse" /><linearGradient
     inkscape:collect="always"
     xlink:href="#linearGradient7673"
     id="linearGradient7679"
     x1="100"
     y1="50"
     x2="76.310997"
     y2="50"
     gradientUnits="userSpaceOnUse" /><linearGradient
     inkscape:collect="always"
     xlink:href="#linearGradient7681"
     id="linearGradient7687"
     x1="50"
     y1="0"
     x2="50"
     y2="19.9715"
     gradientUnits="userSpaceOnUse" /><linearGradient
     inkscape:collect="always"
     xlink:href="#linearGradient7681"
     id="linearGradient7689"
     x1="90.055252"
     y1="9.9449997"
     x2="70.002747"
     y2="29.997999"
     gradientUnits="userSpaceOnUse" /><linearGradient
     inkscape:collect="always"
     xlink:href="#linearGradient7691"
     id="linearGradient7697"
     x1="9.9460001"
     y1="9.9460001"
     x2="29.999001"
     y2="29.999001"
     gradientUnits="userSpaceOnUse" /><filter
     inkscape:collect="always"
     id="filter7715"
     color-interpolation-filters="sRGB"><feGaussianBlur
       inkscape:collect="always"
       stdDeviation="0.77319588"
       id="feGaussianBlur7717" /></filter><filter
     inkscape:collect="always"
     id="filter7719"
     x="-0.28048217"
     width="1.5609643"
     y="-0.078334674"
     height="1.1566693"
     color-interpolation-filters="sRGB"><feGaussianBlur
       inkscape:collect="always"
       stdDeviation="0.77319588"
       id="feGaussianBlur7721" /></filter><filter
     inkscape:collect="always"
     id="filter7723"
     x="-0.28048217"
     width="1.5609643"
     y="-0.078337982"
     height="1.1566761"
     color-interpolation-filters="sRGB"><feGaussianBlur
       inkscape:collect="always"
       stdDeviation="0.77319588"
       id="feGaussianBlur7725" /></filter><filter
     inkscape:collect="always"
     id="filter7727"
     x="-0.078334674"
     width="1.1566693"
     y="-0.28048217"
     height="1.5609643"
     color-interpolation-filters="sRGB"><feGaussianBlur
       inkscape:collect="always"
       stdDeviation="0.77319588"
       id="feGaussianBlur7729" /></filter><filter
     inkscape:collect="always"
     id="filter7731"
     color-interpolation-filters="sRGB"><feGaussianBlur
       inkscape:collect="always"
       stdDeviation="0.77319588"
       id="feGaussianBlur7733" /></filter><filter
     inkscape:collect="always"
     id="filter7735"
     color-interpolation-filters="sRGB"><feGaussianBlur
       inkscape:collect="always"
       stdDeviation="0.77319588"
       id="feGaussianBlur7737" /></filter><filter
     inkscape:collect="always"
     id="filter7739"
     color-interpolation-filters="sRGB"><feGaussianBlur
       inkscape:collect="always"
       stdDeviation="0.77319588"
       id="feGaussianBlur7741" /></filter><filter
     inkscape:collect="always"
     id="filter7743"
     color-interpolation-filters="sRGB"><feGaussianBlur
       inkscape:collect="always"
       stdDeviation="0.77319588"
       id="feGaussianBlur7745" /></filter><filter
     inkscape:collect="always"
     id="filter7747"
     x="-0.078334674"
     width="1.1566693"
     y="-0.28048217"
     height="1.5609643"
     color-interpolation-filters="sRGB"><feGaussianBlur
       inkscape:collect="always"
       stdDeviation="0.77319588"
       id="feGaussianBlur7749" /></filter><linearGradient
     inkscape:collect="always"
     xlink:href="#linearGradient7647"
     id="linearGradient7751"
     gradientUnits="userSpaceOnUse"
     x1="9.9460001"
     y1="80.027496"
     x2="29.999001"
     y2="80.027496" /></defs><sodipodi:namedview
   pagecolor="#ffffff"
   bordercolor="#666666"
   borderopacity="1"
   objecttolerance="10"
   gridtolerance="10"
   guidetolerance="10"
   inkscape:pageopacity="0"
   inkscape:pageshadow="2"
   inkscape:window-width="1200"
   inkscape:window-height="808"
   id="namedview6876"
   showgrid="false"
   inkscape:zoom="5.515"
   inkscape:cx="100"
   inkscape:cy="50"
   inkscape:window-x="0"
   inkscape:window-y="31"
   inkscape:window-maximized="1"
   inkscape:current-layer="Layer_1" />
<g
   id="g6840"
   style="fill:#ffff00;filter:url(#filter7715)"
   transform="matrix(1.966998,0,0,1.966998,-0.20557072,3.5057696)">
	<circle
   cx="50"
   cy="50"
   r="23.896"
   id="circle6842"
   style="fill:#ffff00"
   sodipodi:cx="50"
   sodipodi:cy="50"
   sodipodi:rx="23.896"
   sodipodi:ry="23.896"
   d="M 73.896,50 C 73.896,63.197396 63.197396,73.896 50,73.896 36.802604,73.896 26.104,63.197396 26.104,50 26.104,36.802604 36.802604,26.104 50,26.104 63.197396,26.104 73.896,36.802604 73.896,50 z" />
</g>
<g
   id="g6844"
   style="fill:url(#linearGradient7661);fill-opacity:1;filter:url(#filter7719)"
   transform="matrix(1.966998,0,0,1.966998,-0.20557072,3.5057696)">
	<path
   d="m 50,100 c -1.827,0 -3.308,-1.481 -3.308,-3.308 V 79.619 c 0,-1.827 1.48,-3.308 3.308,-3.308 1.828,0 3.308,1.48 3.308,3.308 V 96.692 C 53.308,98.519 51.827,100 50,100 z"
   id="path6846"
   style="fill:url(#linearGradient7663);fill-opacity:1" />
</g>
<g
   id="g6848"
   style="fill:#ff7f2a;fill-opacity:1;filter:url(#filter7723)"
   transform="matrix(1.966998,0,0,1.966998,-0.20557072,3.5057696)">
	<path
   d="m 50,23.688 c -1.827,0 -3.308,-1.481 -3.308,-3.308 V 3.308 C 46.692,1.481 48.173,0 50,0 c 1.827,0 3.308,1.481 3.308,3.308 v 17.073 c 0,1.827 -1.481,3.307 -3.308,3.307 z"
   id="path6850"
   style="fill:url(#linearGradient7687);fill-opacity:1" />
</g>

<g
   id="g6856"
   style="fill:#ff7f2a;fill-opacity:1;filter:url(#filter7727)"
   transform="matrix(1.966998,0,0,1.966998,-0.20557072,3.5057696)">
	<path
   d="M 96.692,53.308 H 79.619 c -1.827,0 -3.308,-1.481 -3.308,-3.308 0,-1.827 1.48,-3.308 3.308,-3.308 h 17.073 c 1.826,0 3.308,1.48 3.308,3.308 0,1.827 -1.481,3.308 -3.308,3.308 z"
   id="path6858"
   style="fill:url(#linearGradient7679);fill-opacity:1" />
</g>
<g
   id="g6860"
   style="fill:url(#linearGradient7653);fill-opacity:1;filter:url(#filter7731)"
   transform="matrix(1.966998,0,0,1.966998,-0.20557072,3.5057696)">
	<path
   d="m 13.254,90.054 c -0.847,0 -1.693,-0.323 -2.339,-0.969 -1.292,-1.292 -1.292,-3.386 0,-4.678 L 24.352,70.97 c 1.292,-1.292 3.386,-1.292 4.678,0 1.292,1.292 1.292,3.386 0,4.678 L 15.593,89.085 c -0.646,0.646 -1.492,0.969 -2.339,0.969 z"
   id="path6862"
   style="fill:url(#linearGradient7751);fill-opacity:1" />
</g>
<g
   id="g6864"
   style="fill:#ff7f2a;fill-opacity:1;filter:url(#filter7735)"
   transform="matrix(1.966998,0,0,1.966998,-0.20557072,3.5057696)">
	<path
   d="m 73.311,29.998 c -0.847,0 -1.693,-0.323 -2.34,-0.969 -1.291,-1.292 -1.291,-3.386 0,-4.678 L 84.408,10.914 c 1.292,-1.292 3.386,-1.292 4.679,0 1.291,1.292 1.291,3.386 0,4.678 L 75.649,29.029 c -0.646,0.646 -1.492,0.969 -2.338,0.969 z"
   id="path6866"
   style="fill:url(#linearGradient7689);fill-opacity:1" />
</g>
<g
   id="g6868"
   style="fill:#ff7f2a;fill-opacity:1;filter:url(#filter7739)"
   transform="matrix(1.966998,0,0,1.966998,-0.20557072,3.5057696)">
	<path
   d="m 26.69,29.999 c -0.847,0 -1.692,-0.323 -2.339,-0.969 L 10.915,15.593 c -1.292,-1.292 -1.292,-3.386 0,-4.678 1.293,-1.292 3.387,-1.292 4.678,0 L 29.03,24.352 c 1.292,1.292 1.292,3.386 0,4.678 -0.646,0.646 -1.493,0.969 -2.34,0.969 z"
   id="path6870"
   style="fill:url(#linearGradient7697);fill-opacity:1" />
</g>
<g
   id="g6872"
   style="fill:#ff7f2a;fill-opacity:1;filter:url(#filter7743)"
   transform="matrix(1.966998,0,0,1.966998,-0.20557072,3.5057696)">
	<path
   d="m 86.746,90.054 c -0.847,0 -1.692,-0.323 -2.339,-0.969 L 70.971,75.648 c -1.292,-1.292 -1.292,-3.386 0,-4.678 1.292,-1.292 3.386,-1.292 4.678,0 l 13.438,13.437 c 1.291,1.292 1.291,3.386 0,4.678 -0.648,0.646 -1.494,0.969 -2.341,0.969 z"
   id="path6874"
   style="fill:url(#linearGradient7671);fill-opacity:1" />
</g>
<g
   style="fill:url(#linearGradient7558);fill-opacity:1;filter:url(#filter7747)"
   id="g7526"
   transform="matrix(1.966998,0,0,1.966998,-0.20557072,3.5057696)"><path
     style="fill:url(#linearGradient7556);fill-opacity:1"
     id="path7528"
     d="M 20.381,53.308 H 3.308 C 1.481,53.308 0,51.827 0,50 0,48.173 1.481,46.692 3.308,46.692 h 17.073 c 1.827,0 3.308,1.48 3.308,3.308 -0.001,1.827 -1.481,3.308 -3.308,3.308 z" /></g></svg>